HIERARCHY
ROOT Hips
{
    OFFSET 0.0 0.0 0.0
    CHANNELS 6 Xposition Yposition Zposition Zrotation Xrotation Yrotation
    JOINT Spine
    {
        OFFSET 0.0 5.0 0.0
        CHANNELS 3 Zrotation Xrotation Yrotation
        JOINT Chest
        {
            OFFSET 0.0 5.0 0.0
            CHANNELS 3 Zrotation Xrotation Yrotation
            JOINT Neck
            {
                OFFSET 0.0 8.0 0.0
                CHANNELS 3 Zrotation Xrotation Yrotation
                JOINT Head
                {
                    OFFSET 0.0 5.0 0.0
                    CHANNELS 3 Zrotation Xrotation Yrotation
                    End Site
                    {
                        OFFSET 0.0 3.0 0.0
                    }
                }
            }
            JOINT LeftShoulder
            {
                OFFSET -5.0 0.0 0.0
                CHANNELS 3 Zrotation Xrotation Yrotation
                JOINT LeftArm
                {
                    OFFSET 0.0 -10.0 0.0
                    CHANNELS 3 Zrotation Xrotation Yrotation
                    JOINT LeftForeArm
                    {
                        OFFSET 0.0 -10.0 0.0
                        CHANNELS 3 Zrotation Xrotation Yrotation
                        End Site
                        {
                            OFFSET 0.0 -3.0 0.0
                        }
                    }
                }
            }
        }
    }
}

MOTION
Frames: 25
Frame Time: 0.033333
960.000000 445.000000 92.408904 0.000000 0.000000 0.000000 0.000000 0.000000 0.000000 23.025492 3.102731 0.000000 180.000000 12.207854 0.000000 21.801409 -5.396100 -0.000000 158.198591 3.968898 30.000000 15.945396 3.988441 0.000000 18.000000 -0.899649 0.000000
1691.525230 140.756605 109.710945 0.000000 0.000000 0.000000 0.000000 0.000000 0.000000 -163.376529 -0.075465 4.973798 16.623471 -4.413155 4.973798 -171.853121 -3.213767 3.759997 99.744051 -15.586521 29.763441 -171.126653 -3.368918 -3.759997 0.673538 0.446024 0.313953
1636.048050 128.802021 95.259749 0.000000 0.000000 0.000000 0.000000 0.000000 0.000000 157.904128 -4.438231 9.635073 -22.095872 33.123120 9.635073 -171.936471 -4.539192 7.460697 -143.675701 1.627362 29.057495 -173.500805 -4.292556 -7.460697 0.570999 0.509569 0.626666
1578.156967 80.474526 118.198984 0.000000 0.000000 0.000000 0.000000 0.000000 0.000000 -139.519796 -5.101875 13.690942 40.480204 15.060102 13.690942 -174.507724 -4.415765 11.043737 119.111399 12.462674 27.893295 -173.607258 -4.504283 -11.043737 0.461920 0.438820 0.936907
960.418757 444.998421 127.179669 0.000000 0.000000 0.000000 0.000000 0.000000 0.000000 25.077893 27.986590 16.886559 180.000000 -22.924894 16.886559 23.861935 9.983568 14.452610 156.138065 -24.702486 26.289200 17.903699 14.574665 -14.452610 18.000000 -0.321537 1.243449
960.523360 444.997533 122.879618 0.000000 0.000000 0.000000 0.000000 0.000000 0.000000 25.638906 -15.115793 19.021130 180.000000 -2.604853 19.021130 24.425035 7.673057 17.633558 155.574965 0.301814 24.270510 18.452907 -9.346233 -17.633558 18.000000 0.908326 1.545085
960.627905 444.996447 127.703236 0.000000 0.000000 0.000000 0.000000 0.000000 0.000000 26.219073 4.115139 19.960535 180.000000 4.397280 19.960535 25.006291 -0.905913 20.536413 154.993709 6.018740 21.869059 19.024920 -5.373790 -20.536413 18.000000 0.409802 1.840623
1126.242828 420.359820 127.503086 0.000000 0.000000 0.000000 0.000000 0.000000 0.000000 31.410514 -3.135394 19.645745 -148.589486 -1.233101 19.645745 32.280463 -0.495589 23.115397 -131.603972 1.100240 19.122720 45.585331 -1.416520 -23.115397 -13.449727 0.049648 2.128896
1257.895088 650.549197 124.970475 0.000000 0.000000 0.000000 0.000000 0.000000 0.000000 25.073180 12.532671 18.096541 -154.926820 -20.550905 18.096541 46.260945 -4.898802 25.329838 -154.651428 -6.313608 16.074804 27.339487 4.535587 -25.329838 -13.619892 1.196065 2.408768
960.941083 444.992008 148.993252 0.000000 0.000000 0.000000 0.000000 0.000000 0.000000 28.072001 26.924754 15.410265 180.000000 -14.111095 15.410265 26.849221 10.496085 27.144812 153.150779 -9.745317 12.773379 20.864045 7.941412 -27.144812 18.000000 -1.306501 2.679134
1163.815842 547.748709 144.520950 0.000000 0.000000 0.000000 0.000000 0.000000 0.000000 117.162728 -5.920105 11.755705 -62.837272 8.522418 11.755705 102.363764 3.255848 28.531695 -47.376450 3.936156 9.270510 104.768601 1.086792 -28.531695 -6.003489 -0.368711 2.938926
961.149372 444.988063 156.720529 0.000000 0.000000 0.000000 0.000000 0.000000 0.000000 29.395983 -4.882961 7.362491 180.000000 -13.667601 7.362491 28.146217 -5.722862 29.468618 151.853783 11.421666 5.621439 22.170006 -11.323895 -29.468618 18.000000 0.267487 3.187120
1136.717377 590.104480 152.031311 0.000000 0.000000 0.000000 0.000000 0.000000 0.000000 115.752126 4.539425 2.506665 -64.247874 -3.442373 2.506665 73.638146 -2.438427 29.940802 -21.842452 5.163858 1.883716 75.369282 -7.613961 -29.940802 -6.767207 0.676911 3.422736
1163.079758 634.077559 155.157248 0.000000 0.000000 0.000000 0.000000 0.000000 0.000000 132.174340 8.555250 -2.506665 -47.825660 -3.784140 -2.506665 94.255711 -1.637968 29.940802 -149.364979 -6.785065 -1.883716 30.021641 6.034815 -29.940802 -5.096180 -0.917510 3.644843
961.460830 444.980668 157.316069 0.000000 0.000000 0.000000 0.000000 0.000000 0.000000 31.497152 -36.998474 -7.362491 180.000000 -6.090923 -7.362491 30.152455 1.458620 29.468618 149.847545 1.608920 -5.621439 24.175589 -2.924455 -29.468618 18.000000 0.760703 3.852566
1097.449951 565.089898 124.621120 0.000000 0.000000 0.000000 0.000000 0.000000 0.000000 -119.219568 10.053101 -11.755705 60.780432 -12.092138 -11.755705 -150.180642 -6.533330 28.531695 48.804955 -9.701720 -9.270510 -149.874178 -5.448516 -28.531695 2.713854 0.594976 4.045085
1114.140244 528.302071 158.928858 0.000000 0.000000 0.000000 0.000000 0.000000 0.000000 -142.671523 -15.500928 -15.410265 37.328477 15.125331 -15.410265 -177.395681 0.605820 27.144812 34.687329 10.596906 -12.773379 161.894167 -1.987002 -27.144812 -0.910956 0.356084 4.221640
1116.433640 479.728639 144.152329 0.000000 0.000000 0.000000 0.000000 0.000000 0.000000 -102.267481 -9.135733 -18.096541 77.732519 -2.587002 -18.096541 -163.695626 4.001428 25.329838 38.575767 0.554233 -16.074804 -176.001122 0.491972 -25.329838 0.706594 0.080900 4.381533
1135.931282 466.493965 160.417615 0.000000 0.000000 0.000000 0.000000 0.000000 0.000000 -112.868406 -6.486543 -19.645745 67.131594 23.701930 -19.645745 -159.517862 -7.168931 23.115397 36.204678 4.215305 -19.122720 -154.426613 -6.377569 -23.115397 2.428729 0.539411 4.524135
1141.618767 467.420679 155.881335 0.000000 0.000000 0.000000 0.000000 0.000000 0.000000 -123.086385 -3.360319 -19.960535 56.913615 16.947868 -19.960535 -154.885724 -1.073466 20.536413 36.481623 1.514710 -21.869059 -153.965441 -5.842146 -20.536413 2.446728 0.525167 4.648882
1150.647926 469.370956 152.027775 0.000000 0.000000 0.000000 0.000000 0.000000 0.000000 -43.953779 -29.555507 -19.021130 136.046221 2.598130 -19.021130 -154.327268 -6.891386 17.633558 60.745168 9.004373 -24.270510 -153.350642 -7.002345 -17.633558 2.386216 0.629377 4.755283
1151.529922 496.420240 136.165068 0.000000 0.000000 0.000000 0.000000 0.000000 0.000000 -116.362129 4.037789 -16.886559 63.637871 13.830176 -16.886559 -149.081043 -3.399229 14.452610 35.941860 5.905816 -26.289200 -156.847177 -3.837253 -14.452610 2.056513 0.065013 4.842916
1148.402367 515.713574 138.642577 0.000000 0.000000 0.000000 0.000000 0.000000 0.000000 -118.252650 -5.740856 -13.690942 61.747350 5.943469 -13.690942 -138.082896 -2.189695 11.043737 -156.312677 -6.882950 -27.893295 21.649626 9.671958 -11.043737 2.962417 -0.281638 4.911436
1175.363617 533.368646 144.445903 0.000000 0.000000 0.000000 0.000000 0.000000 0.000000 -95.476638 -19.601110 -9.635073 84.523362 6.013843 -9.635073 -113.907461 -2.631338 7.460697 -155.995907 -6.415203 -29.057495 12.512064 8.831731 -7.460697 -16.748794 -0.883173 4.960574
1199.533310 485.991104 114.583217 0.000000 0.000000 0.000000 0.000000 0.000000 0.000000 -100.003195 -2.616522 -4.973798 79.996805 -1.041332 -4.973798 -86.083188 2.789450 3.759997 38.843754 0.527454 -29.763441 -106.539452 0.837413 -3.759997 6.197806 -0.026561 4.990134
